<?xml version="1.0" encoding="UTF-8" standalone="no" ?>
<!DOCTYPE svg PUBLIC "-//W3C//DTD SVG 1.1//EN" "http://www.w3.org/Graphics/SVG/1.1/DTD/svg11.dtd">
<svg xmlns="http://www.w3.org/2000/svg" xmlns:xlink="http://www.w3.org/1999/xlink" version="1.1" width="1280" height="1024" viewBox="0 0 1280 1024" xml:space="preserve">
<desc>Created with Fabric.js 5.3.0</desc>
<defs>
</defs>
<g transform="matrix(1 0 0 1 640 512)" id="background-logo"  >
<rect style="stroke: none; stroke-width: 0; stroke-dasharray: none; stroke-linecap: butt; stroke-dashoffset: 0; stroke-linejoin: miter; stroke-miterlimit: 4; fill: rgb(15,17,61); fill-rule: nonzero; opacity: 1;"  paint-order="stroke"  x="-640" y="-512" rx="0" ry="0" width="1280" height="1024" />
</g>
<g transform="matrix(1.9211538461538462 0 0 1.9211538461538462 640 404.55395651175695)" id="logo-logo"  >
<g style=""  paint-order="stroke"   >
		<g transform="matrix(0.8547688864139124 0 0 0.8547688864139125 -0.10940259632576499 -2.842171e-14)"  >
<linearGradient id="SVGID_2_103684" gradientUnits="userSpaceOnUse" gradientTransform="matrix(1 0 0 1 0 0)"  x1="461.4046631" y1="487.1452332" x2="615.7225342" y2="641.4631348">
<stop offset="3.29725%" style="stop-color:rgb(161,235,245);stop-opacity: 1"/>
<stop offset="18.077460000000002%" style="stop-color:rgb(44,137,161);stop-opacity: 1"/>
<stop offset="33.96067%" style="stop-color:rgb(120,203,228);stop-opacity: 1"/>
<stop offset="48.5278%" style="stop-color:rgb(170,242,249);stop-opacity: 1"/>
<stop offset="71.68331%" style="stop-color:rgb(116,200,227);stop-opacity: 1"/>
<stop offset="80.50731%" style="stop-color:rgb(22,118,140);stop-opacity: 1"/>
</linearGradient>
<path style="stroke: none; stroke-width: 1; stroke-dasharray: none; stroke-linecap: butt; stroke-dashoffset: 0; stroke-linejoin: miter; stroke-miterlimit: 4; fill: url(#SVGID_2_103684); fill-rule: nonzero; opacity: 1;"  paint-order="stroke"  transform=" translate(-541.0049895499999, -540.7255706999999)" d="M 567.3626709 539.6802368 C 566.9328613 540.269043 566.5638428 540.9042969 566.2790527 541.5853882 C 560.5177001999999 533.5548706 551.1104736 528.3082276 540.4947509 528.3082276 C 530.3947753 528.3082276 521.3892821 533.0582886 515.5754393999999 540.4352418 C 515.2724608999999 539.7855225999999 514.8992919 539.1764527 514.4620361 538.6176148 C 520.6523437 531.1057129 530.0235595 526.3082276 540.4947509 526.3082276 C 551.4504395 526.3082275 561.1987305 531.5625 567.3626709 539.6802368 z M 574.2178955 560.0318604 C 574.2178955 558.0559083 574.0373535000001 556.1224366 573.7097168 554.2388306 C 572.9720459 554.1622315000001 572.2648926 553.9882202 571.5899658000001 553.7454834 C 572.0002441 555.7782593000001 572.2178955 557.8800049 572.2178955 560.0318604 C 572.2178955 572.2160035 565.3095703 582.8115235 555.2076416000001 588.1240235 L 555.9443359 589.9931031 C 566.786499 584.3793335 574.2178955 573.0609131 574.2178955 560.0318604 z M 574.4558105 535.8390503 C 574.6137695 535.8311157 574.7697753 535.8150635000001 574.9298095 535.8150635000001 L 576.876831 535.8150635000001 C 572.204956 528.8190918 565.5721435 523.2421875000001 557.769165 519.8726807 L 551.7833252 519.8726807 C 561.0412598 522.4788208 569 528.2023926 574.4558105 535.8390503 z M 525.8947754 590.4284668 L 526.6312256 588.5597534 C 516.0673828 583.4052124 508.7710877 572.555603 508.7710877 560.0318603 C 508.7710877 557.6893309999999 509.0339051 555.4082030999999 509.5179749 553.2089843 C 508.8423768 553.3744506 508.1405945 553.4714355 507.415802 553.4761352 C 506.99600219999996 555.5978393 506.7710876 557.7887573 506.7710876 560.0318603000001 C 506.7710876 566.7476806000001 508.7521667 573.0056762 512.1492919 578.2677001000001 C 513.9074706 579.4026488000001 515.2593992999999 581.1071166 515.9478759 583.1205443000001 C 518.7751465 586.1245117 522.1394043 588.6174316 525.8947754 590.4284668 z M 498.7710876 560.0318604 C 498.7710876 557.8024292 498.9514465 555.6148682 499.2898254 553.4791260000001 L 497.2633972 553.4791260000001 C 496.9406433 555.6173096000001 496.7710876 557.8050537 496.7710876 560.0318604 C 496.7710876 565.9583741 497.9617614 571.6104737000001 500.1076355 576.7691651 L 502.28695680000004 576.7691651 C 500.032135 571.6419678 498.7710876 565.9827881 498.7710876 560.0318604 z M 583.8287354 554.2886963 L 581.8129883 554.2886963 C 582.0729981000001 556.1675415 582.2178955 558.0826416 582.2178955 560.0318603999999 C 582.2178955 566.2977905999999 580.8206787 572.2406616999999 578.3354492000001 577.5787353999999 L 580.5301513 577.5787353999999 C 582.8951415 572.2037963999999 584.2178954000001 566.2708740999999 584.2178954000001 560.0318603999999 C 584.2178955 558.0841064 584.0767822 556.1697998 583.8287354 554.2886963 z M 592.1665039 558.0093384 C 592.1925048999999 558.6813355 592.2178954999999 559.3535767000001 592.2178954999999 560.0318604 C 592.2178954999999 566.1893921000001 591.1315917999999 572.0969239 589.1485595999999 577.5787354 L 591.2597656999999 577.5787354 C 593.1468506999998 572.1351319 594.1907959999999 566.302002 594.2128906999999 560.2294922 L 592.1665039 558.0093384 z M 570.8907471 515.7663574 L 570.8907471 518.2193603 C 577.2253418 522.8371582 582.4747315 528.8530272999999 586.1800537 535.8150634 L 588.4267578 535.8150634 C 584.3383789 527.7562866 578.2849121 520.8598022 570.8907471 515.7663574 z M 492.9773254 535.0054932 L 495.24874869999996 535.0054932 C 499.01870719999994 528.2169190000001 504.2733459 522.3675537 510.56893909999997 517.8844605 L 510.56893909999997 515.4376221 C 503.2093811 520.3925171 497.1456604 527.123291 492.9773254 535.0054932 z M 491.5659485 576.769165 C 489.7636414 571.5154419 488.7710877 565.8889770000001 488.7710877 560.0318603000001 C 488.7710877 559.4581909000001 488.795868 558.8904418000001 488.8144837 558.3211669000001 L 486.78359989999996 560.5245360000001 C 486.83499149999994 566.1908568000001 487.7707215 571.6471556000001 489.45468139999997 576.7691649000001 L 491.5659485 576.7691649000001 z M 567.1574707 592.0962524 C 564.6356201 594.1968994 561.8620605 596.0030517 558.8908691 597.4689941 L 559.2139892 598.2886962 C 559.3552246 598.647644 559.4541015 599.0154418 559.5338134 599.3859252 C 562.7517089 597.8227538 565.748413 595.8749389 568.4681396 593.6049803999999 C 567.9796143 593.1502686 567.5368652 592.6477051 567.1574707 592.0962524 z M 530.0869141 517.5699463 L 550.9023437999999 517.5699463 C 547.5645751999999 516.7515869 544.0811768 516.3082274999999 540.494751 516.3082274999999 C 536.9082031 516.3082275 533.4246826 516.7515869 530.0869141 517.5699463 z M 522.9589844 597.8780518 C 519.7506103999999 596.3855591 516.7591553 594.5039673 514.0541992 592.2822876 C 513.5975341999999 592.7800903 513.0908203 593.2302246 512.5345459 593.6167603 C 515.46521 596.060669 518.7219238 598.1222535 522.2249756 599.7404786 L 522.9589844 597.8780518 z M 504.6733704 535.0054932 L 507.084076 535.0054932 C 507.099762 535.0054932 507.1148377 535.0078125 507.1305238 535.0078736 C 512.5621338999999 527.7841798000001 520.2847902 522.3840333 529.2060548 519.8726807 L 523.2200928999999 519.8726807 C 515.7218018 523.1105347 509.3089905 528.3903809 504.6733704 535.0054932 z M 511.0786438 473.1458435 C 511.221283 472.3785095 511.3905334 471.6208191 511.59091190000004 470.87515260000004 C 505.0786438 472.99148560000003 498.87759400000004 475.80184940000004 493.07431030000004 479.2203064 L 493.07431030000004 481.54379270000004 C 498.709259 478.1265564 504.7390442 475.2979431 511.0786438 473.1458435 z M 617.1269531 626.8535767 C 614.3096924 630.0803833 611.2905273 633.1256103999999 608.0927734 635.9750366999999 L 609.4746093000001 637.4211426999999 C 612.6613769000002 634.5776367999999 615.6724853000001 631.5423584999999 618.4884032000001 628.3306885999999 L 617.1269531 626.8535767 z M 611.519165 550.1373901 L 613.8477783000001 552.6523437 C 613.1378174 545.5419310999999 611.4002685 538.7331542 608.8085937000001 532.3587036 L 604.4752197 527.678833 C 607.9891357 534.5996094 610.4127197 542.1583252 611.519165 550.1373901 z M 622.2178955 560.0318604 C 622.2178955 560.5737305 622.1873779 561.1082764 622.1768799 561.6477051 L 624.1235352 563.7501221 C 624.1778565 562.5162964 624.2178956 561.2788086 624.2178956 560.0318604 C 624.2178956 555.9667969000001 623.911255 551.9732056 623.3486329 548.0613404000001 L 620.8790284 545.3942872 C 621.7425537 550.1472168 622.2178955 555.0336914 622.2178955 560.0318604 z M 510.5689392 506.0733948 L 510.5689392 503.79330450000003 C 503.9584045 507.3251038 498.0409241 511.98580940000005 493.0743103 517.5202027 L 493.0743103 519.8726807 L 491.0641174 519.8726807 C 486.5691223 525.3948975000001 482.9795837 531.6793213000001 480.5226135 538.5023804 C 481.3971863 537.5698853 482.4258728 536.81427 483.546112 536.2399903 C 488.9233093 523.4172363 498.5115051 512.7872925 510.5689392 506.0733948 z M 570.8907471 504.0374451 L 570.8907471 506.3440857 C 582.8518067 513.1429443 592.329834 523.8137816999999 597.6044922 536.6488648 C 598.6108399 537.0601806999999 599.5522460999999 537.6201172 600.4013672 538.310608 C 597.9465332 531.5607911 594.3781738 525.343628 589.9250488 519.8726808 L 588.3858642 519.8726808 L 588.3858642 518.0637819 C 583.4383545 512.4249268 577.5255127 507.6535339 570.8907471 504.0374451 z M 610.3067627 619.4541016 C 607.4874268 622.7614136 604.4379883 625.8657837 601.1831055 628.7439575999999 L 602.5651856000001 630.1902466999999 C 605.8083497 627.3175659999998 608.8524170000001 624.2258911999999 611.6721192000001 620.9353638999999 L 610.3067627 619.4541016 z M 588.3858643 493.8719177 L 588.3858643 491.4185486 C 582.9837646999999 487.6364441 577.1185303 484.4801331 570.8907471 482.04422 L 570.8907471 484.19400029999997 C 577.1402588 486.7080383 583.0083008 489.9683533 588.3858643 493.8719177 z M 470.8158264 619.6118774 L 469.45047 621.0931396 C 472.3929749 624.5119628 475.5769959 627.7166136999999 478.9766541 630.6807249999999 L 480.35867310000003 629.2344359 C 476.9466858 626.265564 473.757843 623.0475464 470.8158264 619.6118774 z M 463.9988708 627.0076904 L 462.6373596 628.4848022 C 465.5769348 631.8241577 468.7268371 634.9733276 472.0671692 637.9118042 L 473.4490051 636.4656982 C 470.0970764 633.5219116 466.9396667 630.3623657 463.9988708 627.0076904 z M 570.2930908 473.2807922 C 576.6694335999999 475.4771423 582.7293701 478.3574524 588.3858642 481.8345031 L 588.3858642 479.4989928 C 582.5462646 476.0130919 576.2983398 473.14492789999997 569.7314453 470.9834899 C 569.9455566 471.738739 570.137085 472.5031433 570.2930908 473.2807922 z M 625.5853271 594.2667236 C 624.4049072 597.1899414 623.0776367 600.0381469 621.6135253 602.8037719 L 623.0534667 604.3589477 C 624.1035155 602.4109497000001 625.0880126 600.4226684 626.0010984999999 598.3953857 L 626.0010984999999 594.7177734 L 625.5853271 594.2667236 z M 466.7221375 595.1656494 C 465.33999639999996 592.2752075 464.139679 589.2843017 463.099762 586.2194824000001 L 461.5562439 587.8940429 C 462.62918090000005 590.9248046 463.8647766 593.8782348000001 465.26596070000005 596.7383422 L 466.7221375 595.1656494 z M 459.4752502 602.9923706 C 458.2195129 600.6337891 457.0588684 598.2171631 456.0088806 595.7423096 L 456.0088806 600.5894165 C 456.6535339 601.9268188 457.3298645 603.2462158 458.0352478 604.5476074 L 459.4752502 602.9923706 z M 617.9642334 585.99823 C 616.9313965 589.071106 615.7333984 592.0679321 614.3570557 594.9664917 L 615.8209229 596.5475464 C 617.2174073 593.6784668 618.4411622 590.7127075 619.5078125 587.6729126 L 617.9642334 585.99823 z M 493.0743103 493.5366516 C 498.4588318 489.6855774 504.3253479 486.47476200000006 510.5689392 484.0082092 L 510.5689392 481.85842890000004 C 504.348053 484.24807730000003 498.481842 487.35275260000003 493.0743103 491.08346550000005 L 493.0743103 493.5366516 z M 493.997345 469.5733337 C 500.9569397 465.9814758 508.3831482 463.1742248 516.1568604 461.25833129999995 C 516.7869874 460.38058469999993 517.4603272 459.5362243999999 518.1798096 458.73300169999993 C 509.8969422 460.5562438999999 501.9831848 463.37149049999994 494.5680237 467.04891969999994 C 494.3540344 467.8813171 494.1667175 468.7240906 493.997345 469.5733337 z M 500.3645935 453.6271057 C 499.79220580000003 454.53683470000004 499.243988 455.4628601 498.7328796 456.41250610000003 C 511.6413879 451.1911316 525.7368164 448.30825810000005 540.4947509 448.30825810000005 C 555.4616698 448.30825810000005 569.7469482 451.27407840000006 582.8040771 456.6367493 C 582.296875 455.6851502 581.7573242 454.7539368 581.1888427 453.8419495 C 568.5468749 448.9808045 554.8280029 446.3082581 540.4947509 446.3082581 C 526.3742676 446.3082581 512.8503418 448.9024963 500.3645935 453.6271057 z M 615.0023193 643.2059326 L 616.3842773 644.6522216999999 C 619.5168457 641.8399658 622.4916992 638.8563232999999 625.2965087 635.7169799999999 L 623.9348144 634.2396851 C 621.1271973 637.3930664 618.1455078 640.3872681 615.0023193 643.2059326 z M 540.494751 436.3082581 C 531.6647949 436.3082581 523.0506591999999 437.245514 514.7397460999999 439.0122986 C 513.3095702999999 439.94558720000003 511.92880249999996 440.9475403 510.6103210999999 442.0246887 C 520.1756591999999 439.6012268 530.1866455999999 438.308258 540.494751 438.308258 C 551.0159911999999 438.308258 561.2294922 439.6510925 570.9736327999999 442.1725768 C 569.6602783 441.0902404 568.2829589999999 440.08432 566.8579100999999 439.1450499 C 558.3591309 437.2931824 549.5404053 436.3082581 540.494751 436.3082581 z M 603.4797363 612.0471191 C 600.3402099 615.8421020000001 596.855957 619.3389892 593.0910644 622.5133667 C 593.7607421 622.7915039 594.413208 623.1082153 595.0456542000001 623.4643555 C 598.5759276000001 620.4239502 601.8605956 617.1071778 604.8427733000001 613.5260010000001 L 603.4797363 612.0471191 z M 564.9991455 461.2991638 C 572.9002685 463.26077269999996 580.4389648 466.14730829999996 587.4943848 469.8388367 C 587.3276368 468.9855652 587.142334 468.1390076 586.9306641000001 467.3024597 C 579.4035645 463.51773069999996 571.3560791000001 460.624237 562.9255371 458.7583313 C 563.6619873 459.5659485 564.3518066 460.4159851 564.9991455 461.2991638 z M 465.1576843 645.1428833 L 466.5395813 643.6966553 C 463.24459840000003 640.7807007 460.1225891 637.6744385 457.1909485 634.3937377999999 L 456.0088806 635.6761475 L 456.0088806 636.0731811999999 C 458.8852844 639.2658081 461.9413147 642.2926025 465.1576843 645.1428833 z M 610.0716553 577.4353027 C 609.2528076 580.7080688 608.2026367 583.8884277 606.9503174 586.9669799 L 608.4571533000001 588.5944823 C 609.7390137000001 585.5559691 610.8110351 582.4095457999999 611.6805420000001 579.180847 L 610.0716553 577.4353027 z M 522.3779297 621.1168213 L 531.6868896999999 621.1168213 C 515.3090821 618.7658081 500.99154669999996 609.9657593 491.39291389999994 597.3754882999999 C 491.14828499999993 597.5865478999999 490.9127502999999 597.8093872 490.69149789999994 598.0484618999999 L 489.9834900999999 598.8166503999998 C 498.0732117 609.3274536 509.35849 617.2483521 522.3779297 621.1168213 z M 596.6223145 604.6072998 C 591.4354249 611.125 585.1490479 616.7272949 578.0322266000001 621.1168213 L 581.7285157 621.1168213 C 587.8779298 616.9523925999999 593.3553468 611.8746947999999 597.9942628 606.0957642 L 596.6223145 604.6072998 z M 591.1248779 598.664978 C 590.6522217 598.1860351 590.1286621 597.7687378 589.5657959 597.4141845 C 579.9674072 609.9835815 565.6633301 618.7682494000001 549.3026123 621.1168212 L 558.6114501999999 621.1168212 C 571.6939697 617.2296143 583.0273438 609.2519531 591.1248779 598.664978 z M 480.4742126 580.3131104 C 480.88314809999997 579.8716431 481.33395379999996 579.4787598 481.8041076 579.1135865 C 480.6964416 575.7152711 479.8782653 572.1895753 479.3744201 568.5628663 L 477.6365051 570.4483643 C 478.21322630000003 573.9395752 479.0783386 577.3326416 480.1998596 580.6094360999999 L 480.4742126 580.3131104 z M 540.494751 613.7554932 C 556.2711181999999 613.7554932 570.4794922 606.9178467 580.3167725 596.0523682 L 577.5628663 596.0523682 C 568.1585694 605.7276612000001 555.020752 611.7554932 540.4947511 611.7554932 C 525.5670167000001 611.7554932 512.104004 605.3912964000001 502.6542054 595.2427979 L 499.9705506 595.2427979 C 509.8276062 606.5723267 524.3334961 613.7554932 540.494751 613.7554932 z M 601.6484375 568.2966309 C 601.144165 572.0463257 600.3052979 575.6895142 599.1568604 579.1962281 C 599.7548829 579.5585938 600.3212891000001 579.973755 600.8442383 580.4467774 C 601.9658203 577.1403809 602.8306885000001 573.7177735 603.3978272 570.1947021999999 L 601.6484375 568.2966309 z M 474.1208191 587.1749268 C 472.86178590000003 584.107605 471.8015442 580.9390258999999 470.9732971 577.6773681999999 L 469.37429810000003 579.4121703999999 C 470.25259400000004 582.6313475999999 471.32931520000005 585.7692261 472.6178284 588.7981566999999 L 474.1208191 587.1749268 z M 486.3688049 623.8327637 C 486.97714229999997 623.4586181999999 487.6032409 623.1185303 488.2502746 622.8186646 C 484.4006652 619.6099244000001 480.84890740000003 616.0567627 477.6446227 612.2032471 L 476.2815856 613.6820069 C 479.3486023 617.3468018 482.7274475 620.7388306 486.3688049 623.8327637 z M 499.2605896 621.1168213 L 502.9570618 621.1168213 C 495.8995056 616.7638549999999 489.65750130000004 611.2189942 484.49533080000003 604.770752 L 483.12332150000003 606.2592774 C 487.7345276 611.9708252 493.1687317 616.991394 499.2605896 621.1168213 z M 570.8907471 495.087738 C 577.293335 498.0965271 583.1828614 502.0187683 588.3858643 506.6952819 L 588.3858643 504.0509948 C 583.1381835999999 499.5550231 577.2562256 495.7865905 570.8907471 492.8930969 L 570.8907471 495.087738 z M 493.0743103 506.287262 C 498.28964229999997 501.6802063 504.1759338 497.82284549999997 510.5689392 494.8747864 L 510.5689392 492.6800232 C 504.2145691 495.5146179 498.3313293 499.2147522 493.0743103 503.6427918 L 493.0743103 506.287262 z M 458.311615 548.4400635 C 457.9909973 548.7863159 457.70797730000004 549.1588744999999 457.4510803 549.5462646999999 C 457.0193176 552.9843139999999 456.7710876 556.4786376999999 456.7710876 560.0318603999999 C 456.7710876 561.3759766 456.8097839 562.7111206999999 456.8727722 564.0399780999999 L 458.81942749999996 561.9375000999999 C 458.80477909999996 561.3018799999999 458.77108769999995 560.6708984999999 458.77108769999995 560.0318604999999 C 458.77108769999995 555.5128785999999 459.15603639999995 551.0839844999999 459.86489869999997 546.7625123999999 L 458.311615 548.4400635 z M 469.4258728 550.4821167 C 470.3913879 543.2615356 472.43093869999996 536.3800659 475.3854675 530.0003052 L 471.4205017 534.2824096999999 C 469.2093811 540.1945190999999 467.73806759999997 546.4624023999999 467.1164856 552.9763793999999 L 469.4258728 550.4821167 z" stroke-linecap="round" />
</g>
		<g transform="matrix(0.8547688864139124 0 0 0.8547688864139125 5.684342e-14 44.12432650446641)"  >
<linearGradient id="SVGID_3_103685" gradientUnits="userSpaceOnUse" gradientTransform="matrix(1 0 0 1 0 0)"  x1="456.0088806" y1="592.3469238" x2="626.2570801" y2="592.3469238">
<stop offset="3.29725%" style="stop-color:rgb(161,235,245);stop-opacity: 1"/>
<stop offset="18.077460000000002%" style="stop-color:rgb(44,137,161);stop-opacity: 1"/>
<stop offset="33.96067%" style="stop-color:rgb(120,203,228);stop-opacity: 1"/>
<stop offset="48.5278%" style="stop-color:rgb(170,242,249);stop-opacity: 1"/>
<stop offset="71.68331%" style="stop-color:rgb(116,200,227);stop-opacity: 1"/>
<stop offset="80.50731%" style="stop-color:rgb(22,118,140);stop-opacity: 1"/>
</linearGradient>
<path style="stroke: none; stroke-width: 1; stroke-dasharray: none; stroke-linecap: butt; stroke-dashoffset: 0; stroke-linejoin: miter; stroke-miterlimit: 4; fill: url(#SVGID_3_103685); fill-rule: nonzero; opacity: 1;"  paint-order="stroke"  transform=" translate(-541.1329804000001, -592.3469238)" d="M 593.9138184 631.2384644 L 608.1540527999999 645.1428833 L 604.0527344 645.1428833 L 593.4387207 634.6861572 C 590.5852050999999 631.875 586.7552489999999 630.3012695 582.7670898 630.3012695 L 540.4945068 630.3012695 L 498.2218933 630.3012695 C 494.2337341 630.3012695 490.40377809999995 631.875 487.55026239999995 634.6861572 L 476.93630979999995 645.1428833 L 472.83493039999996 645.1428833 L 487.07510369999994 631.2384644 C 489.95419309999994 628.4273072 493.81857289999994 626.8535767 497.84249869999996 626.8535767 L 540.4945068 626.8535767 L 583.1464843 626.8535767 C 587.1704102 626.8535767 591.03479 628.4273071 593.9138184 631.2384644 z M 491.4013367 583.9683228 L 512.5345459 583.9683228 L 511.8125916 582.6123658 C 511.2110291 581.4826661000001 510.03549200000003 580.7768555 508.7556458 580.7768555 L 489.71041870000005 580.7768555 C 487.84140010000004 580.7768555 486.05410770000003 581.5429077 484.76528930000006 582.8963623 L 456.00888060000005 613.0950928 L 456.00888060000005 617.9949951 L 486.08291620000006 586.2556763 C 487.4665833 584.7954102 489.38974 583.9683228 491.4013367 583.9683228 z M 491.4013367 542.7424927 L 512.5345459 542.7424927 L 511.8125916 541.3865357 C 511.2110291 540.256836 510.03549200000003 539.5509644 508.7556458 539.5509644 L 489.71041870000005 539.5509644 C 487.84140010000004 539.5509644 486.05410770000003 540.3170166 484.76528930000006 541.6705323 L 456.00888060000005 571.8692628 L 456.00888060000005 576.7691651 L 486.08291620000006 545.0297852 C 487.4665833 543.5695801 489.38974 542.7424927 491.4013367 542.7424927 z M 592.555542 580.7768555 L 573.510376 580.7768555 C 572.2304687999999 580.7768555 571.0549317 581.482666 570.4533692 582.6123658 L 569.7313233 583.9683228 L 590.8646241 583.9683228 C 592.8762208 583.9683228 594.7994386 584.7954102 596.1829835 586.2556763 L 626.2570802 617.9949951 L 626.2570802 613.0950928 L 597.5007325 582.8963623 C 596.211792 581.5429077 594.4245605 580.7768555 592.555542 580.7768555 z M 597.5007324 541.6705322 C 596.211792 540.3170166 594.4245605 539.5509643 592.555542 539.5509643 L 573.510376 539.5509643 C 572.2304687999999 539.5509643 571.0549317 540.2568359 570.4533692 541.3865356 L 569.7314454 542.7424926 L 590.8646241 542.7424926 C 592.8762208 542.7424926 594.7994386 543.56958 596.1829835 545.0297851 L 626.2570802 576.769165 L 626.2570802 571.8692627 L 597.5007324 541.6705322 z" stroke-linecap="round" />
</g>
		<g transform="matrix(0.8547688864139124 0 0 0.8547688864139125 -0.545747325338084 15.360497938459844)"  >
<linearGradient id="SVGID_4_103686" gradientUnits="userSpaceOnUse" gradientTransform="matrix(1 0 0 1 0 0)"  x1="540.4945068" y1="581.6762695" x2="540.4945068" y2="536.9008789">
<stop offset="1.6054499999999998%" style="stop-color:rgb(44,137,161);stop-opacity: 1"/>
<stop offset="63.474540000000005%" style="stop-color:rgb(179,250,255);stop-opacity: 1"/>
</linearGradient>
<path style="stroke: none; stroke-width: 1; stroke-dasharray: none; stroke-linecap: butt; stroke-dashoffset: 0; stroke-linejoin: miter; stroke-miterlimit: 4; fill: url(#SVGID_4_103686); fill-rule: nonzero; opacity: 1;"  paint-order="stroke"  transform=" translate(-540.4945068500001, -558.6959229)" d="M 564.2178955 560.0318604 C 564.2178955 546.9508057 553.5753174 536.3082276 540.4947510000001 536.3082276 C 527.4136963000001 536.3082276 516.7711182 546.9508057 516.7711182 560.0318604 C 516.7711182 569.1775513 521.9768067 577.1257325 529.5775147 581.0836182 L 530.3140870000001 579.2146607000001 C 523.4534913000001 575.5588379000001 518.7711182 568.3333130000001 518.7711182 560.0318604 C 518.7711182 548.0533448 528.5162354 538.3082276 540.4947510000001 538.3082276 C 552.4727783000001 538.3082276 562.2178955 548.0533448 562.2178955 560.0318604 C 562.2178955 567.9914551 557.9122314000001 574.9607544 551.5106201000001 578.7440796000001 L 552.2515869000001 580.6240234 C 559.3927002 576.5305176 564.2178955 568.8364258 564.2178955 560.0318604 z" stroke-linecap="round" />
</g>
		<g transform="matrix(0.8547688864139124 0 0 0.8547688864139125 -0.545747325338084 6.611455270638885)"  >
<path style="stroke: none; stroke-width: 1; stroke-dasharray: none; stroke-linecap: butt; stroke-dashoffset: 0; stroke-linejoin: miter; stroke-miterlimit: 4; fill: rgb(217,252,255); fill-rule: nonzero; opacity: 1;"  paint-order="stroke"  transform=" translate(-540.4945068500001, -548.4603577)" d="M 516.7912598 560.5999146 C 516.7867432 560.4099732000001 516.7711182 560.2228394 516.7711182 560.0318604 C 516.7711182 546.9508057 527.4136963000001 536.3082276 540.4947510000001 536.3082276 C 553.5753174 536.3082276 564.2178955 546.9508057 564.2178955 560.0318604 C 564.2178955 560.2270508 564.2027588000001 560.4184571000001 564.1980591 560.6124878 C 563.7835694 547.8922119 553.3134155 537.6699219000001 540.4947510000001 537.6699219000001 C 527.6798706 537.6699219 517.2122192 547.8855591 516.7912598 560.5999146 z" stroke-linecap="round" />
</g>
		<g transform="matrix(0.8547688864139124 0 0 0.8547688864139125 -0.5457733957892401 35.041624588141474)"  >
<path style="stroke: none; stroke-width: 1; stroke-dasharray: none; stroke-linecap: butt; stroke-dashoffset: 0; stroke-linejoin: miter; stroke-miterlimit: 4; fill: rgb(217,252,255); fill-rule: nonzero; opacity: 1;"  paint-order="stroke"  transform=" translate(-540.49447635, -581.7210083499999)" d="M 540.7008057 529.9294434 L 541.1726685000001 532.2088013 C 541.3386231000001 533.0102539 541.9648438000002 533.6365357 542.7662964000001 533.8024292 L 545.0456543000001 534.274353 L 542.8041382000001 534.7384033000001 C 541.9797363000001 534.9090576000001 541.3355103000001 535.5532837000001 541.1648560000001 536.3776855000001 L 540.7008057 538.6192016000001 L 540.2326661000001 536.3579711000001 C 540.0644532000001 535.5455321000001 539.4296265 534.9106444000001 538.6171265 534.7424926000001 L 536.355896 534.2743530000001 L 538.5635376 533.8173218000002 C 539.4085083 533.6423340000001 540.0687866000001 532.9820557000002 540.2437744 532.1370239000001 L 540.7008057 529.9294434 z M 539.8102417 623.8079224 C 539.5483398 625.0730591 538.5598145 626.0615845000001 537.2947388 626.3234864000001 L 533.9896241 627.0076905000001 L 537.3750001 627.7085572000001 C 538.5913697 627.9603883000001 539.5418092 628.9108277000001 539.7936401999999 630.1271973 L 540.4945068999999 633.5125733 L 541.1892089999999 630.1566773 C 541.4447631999999 628.9224244 542.4091796999999 627.9580079 543.6434325999999 627.7024537 L 546.9993285999999 627.0076905 L 543.5868529999999 626.3012696 C 542.3869629 626.0528565 541.4493408 625.1152344 541.2009276999999 623.9153442999999 L 540.4945067999998 620.5028686999999 L 539.8102417 623.8079224 z" stroke-linecap="round" />
</g>
</g>
</g>
<g transform="matrix(1.9211538461538462 0 0 1.9211538461538462 640.0403442307694 682.5555855241528)" id="text-logo"  >
<g style=""  paint-order="stroke"   >
		<g transform="matrix(1 0 0 1 0 0)" id="text-logo-path-0"  >
<path style="stroke: none; stroke-width: 0; stroke-dasharray: none; stroke-linecap: butt; stroke-dashoffset: 0; stroke-linejoin: miter; stroke-miterlimit: 4; fill: rgb(188,217,235); fill-rule: nonzero; opacity: 1;"  paint-order="stroke"  transform=" translate(-55.36, 14.7)" d="M 6.43 0 L 6.43 -10.08 L 15.29 -10.08 C 21.55 -10.08 24.95 -13.19 24.95 -19.74 C 24.95 -26 21.84 -29.4 15.29 -29.4 L 1.39 -29.4 L 1.39 0 Z M 6.43 -15.12 L 6.43 -24.36 L 15.29 -24.36 C 19.28 -24.36 19.91 -23.69 19.91 -19.74 C 19.91 -15.75 19.24 -15.12 15.29 -15.12 Z M 52.08 -5.04 L 45.36 -5.04 L 45.36 -24.36 L 52.08 -24.36 C 60.1 -24.36 61.74 -22.68 61.74 -14.7 C 61.74 -6.68 60.06 -5.04 52.08 -5.04 Z M 40.32 0 L 52.08 0 C 62.45 0 66.78 -4.12 66.78 -14.7 C 66.78 -25.16 62.58 -29.4 52.08 -29.4 L 40.32 -29.4 Z M 109.33 -4.54 L 105.13 -7.31 C 103.78 -5.29 101.77 -4.62 96.89 -4.62 C 88.83 -4.62 87.19 -6.3 87.19 -14.7 C 87.19 -23.14 88.87 -24.78 96.89 -24.78 C 100.93 -24.78 102.94 -24.28 104.41 -22.97 L 107.77 -26.67 C 105.29 -28.98 101.68 -29.82 96.89 -29.82 C 86.48 -29.82 82.15 -25.7 82.15 -14.7 C 82.15 -3.91 86.35 0.42 96.89 0.42 C 102.73 0.42 106.93 -0.84 109.33 -4.54 Z" stroke-linecap="round" />
</g>
</g>
</g>
<g transform="matrix(1.9211538461538462 0 0 1.9211538461538462 640.0000000000002 762.2566994215482)" id="tagline-80245519-4f37-4d9a-9f7c-57ac932f9bfc-logo"  >
<g style=""  paint-order="stroke"   >
		<g transform="matrix(1 0 0 1 0 0)" id="tagline-80245519-4f37-4d9a-9f7c-57ac932f9bfc-logo-path-0"  >
<path style="stroke: none; stroke-width: 0; stroke-dasharray: none; stroke-linecap: butt; stroke-dashoffset: 0; stroke-linejoin: miter; stroke-miterlimit: 4; fill: rgb(81,169,194); fill-rule: nonzero; opacity: 1;"  paint-order="stroke"  transform=" translate(-243.03500000000003, 9.100000000000001)" d="M 1.4 0 L 4.21 0 L 4.21 -7.2 L 10.04 -7.2 C 14.2 -7.2 15.42 -10.71 15.42 -12.92 C 15.42 -16.04 13.75 -18.2 10.06 -18.2 L 1.4 -18.2 Z M 4.21 -15.7 L 9.62 -15.7 C 11.44 -15.7 12.51 -14.53 12.51 -12.69 C 12.51 -10.84 11.44 -9.7 9.62 -9.7 L 4.21 -9.7 Z M 32.84 0 L 35.65 0 L 35.65 -7.46 L 40.04 -7.46 C 41.7 -7.46 42.67 -7.07 43.63 -4.52 L 45.34 0 L 48.23 0 L 46.41 -4.97 C 45.76 -6.81 45.16 -7.85 43.84 -8.42 C 46.05 -9.07 47.37 -10.74 47.37 -13.08 C 47.37 -16.51 45.42 -18.17 42.02 -18.17 L 35.65 -18.17 L 35.65 -18.2 L 32.84 -18.2 Z M 35.65 -15.68 L 41.91 -15.68 C 43.73 -15.68 44.46 -14.77 44.46 -13.03 C 44.46 -11.26 43.21 -9.96 41.39 -9.96 L 35.65 -9.96 Z M 65.55 0 L 68.35 0 L 68.35 -18.2 L 65.55 -18.2 Z M 101.58 -18.2 L 98.57 -18.2 L 93.57 -4.26 L 88.58 -18.2 L 85.57 -18.2 L 92.25 0 L 94.9 0 Z M 115.26 0 L 118.22 0 L 119.7 -3.95 L 127.76 -3.95 L 129.25 0 L 132.21 0 L 125.29 -18.2 L 122.17 -18.2 Z M 120.48 -6.45 L 123.73 -15.42 L 126.98 -6.45 Z M 149.06 -9.1 C 149.06 -3.22 152.02 0 158.31 0 L 162.5 0 L 162.5 -2.5 L 158.47 -2.5 C 154.13 -2.5 151.97 -4.78 151.97 -9.13 C 151.97 -13.42 154 -15.7 157.87 -15.7 L 162.14 -15.7 L 162.14 -18.2 L 157.85 -18.2 C 152 -18.2 149.06 -14.98 149.06 -9.1 Z M 195.08 -18.2 L 192.11 -18.2 L 186.84 -9.57 L 181.56 -18.2 L 178.59 -18.2 L 185.41 -7.12 L 185.43 -7.12 L 185.43 0 L 188.24 0 L 188.24 -7.12 L 188.27 -7.12 Z M 233.71 0 L 240.89 0 C 246.3 0 249.57 -3.43 249.57 -9.1 C 249.57 -14.77 246.3 -18.2 240.89 -18.2 L 233.71 -18.2 Z M 236.52 -15.7 L 240.89 -15.7 C 244.48 -15.7 246.66 -13.13 246.66 -9.13 C 246.66 -5.07 244.48 -2.5 240.89 -2.5 L 236.52 -2.5 Z M 266.42 0 L 269.39 0 L 270.87 -3.95 L 278.93 -3.95 L 280.41 0 L 283.37 0 L 276.46 -18.2 L 273.34 -18.2 Z M 271.65 -6.45 L 274.9 -15.42 L 278.15 -6.45 Z M 303.26 0 L 306.07 0 L 306.07 -15.7 L 311.79 -15.7 L 311.79 -18.2 L 297.54 -18.2 L 297.54 -15.7 L 303.26 -15.7 Z M 325.96 0 L 328.93 0 L 330.41 -3.95 L 338.47 -3.95 L 339.95 0 L 342.91 0 L 336 -18.2 L 332.88 -18.2 Z M 331.19 -6.45 L 334.44 -15.42 L 337.69 -6.45 Z M 381.19 -9.1 C 381.19 -3.22 384.15 0 390.44 0 L 394.63 0 L 394.63 -2.5 L 390.6 -2.5 C 386.26 -2.5 384.1 -4.78 384.1 -9.13 C 384.1 -13.42 386.13 -15.7 390 -15.7 L 394.26 -15.7 L 394.26 -18.2 L 389.97 -18.2 C 384.12 -18.2 381.19 -14.98 381.19 -9.1 Z M 412.33 -9.1 C 412.33 -3.22 415.64 0.31 421.17 0.31 C 426.66 0.31 429.96 -3.22 429.96 -9.1 C 429.96 -14.98 426.66 -18.51 421.17 -18.51 C 415.64 -18.51 412.33 -14.98 412.33 -9.1 Z M 415.25 -9.13 C 415.25 -13.34 417.53 -15.91 421.17 -15.91 C 424.76 -15.91 427.05 -13.34 427.05 -9.13 C 427.05 -4.86 424.76 -2.29 421.17 -2.29 C 417.53 -2.29 415.25 -4.86 415.25 -9.13 Z M 448.01 0 L 450.81 0 L 450.81 -18.2 L 448.01 -18.2 Z M 469.22 0 L 472.03 0 L 472.03 -14.33 L 481.91 0 L 484.67 0 L 484.67 -18.2 L 481.86 -18.2 L 481.86 -5.38 L 472.84 -18.2 L 469.22 -18.2 Z" stroke-linecap="round" />
</g>
</g>
</g>
</svg>