<?xml version="1.0" encoding="UTF-8"?>
<svg version="1.1" xmlns="http://www.w3.org/2000/svg" width="54" height="54">
<path d="M0 0 C17.82 0 35.64 0 54 0 C54 17.82 54 35.64 54 54 C36.18 54 18.36 54 0 54 C0 36.18 0 18.36 0 0 Z " fill="#0F113D" transform="translate(0,0)"/>
<path d="M0 0 C17.82 0 35.64 0 54 0 C54 17.82 54 35.64 54 54 C36.18 54 18.36 54 0 54 C0 36.18 0 18.36 0 0 Z M9 13 C8.1646875 13.9590625 8.1646875 13.9590625 7.3125 14.9375 C3.73452537 20.56003156 3.20761109 26.50436743 4 33 C5.70993294 38.84150063 8.32819985 43.02896988 13 47 C13.639375 47.556875 14.27875 48.11375 14.9375 48.6875 C22.55571609 53.53545569 30.81697692 52.44342656 39.25 50.73046875 C39.8275 50.48941406 40.405 50.24835937 41 50 C41.33 49.01 41.66 48.02 42 47 C43.1446875 45.948125 43.1446875 45.948125 44.3125 44.875 C48.88554393 39.9829065 51.19682279 34.72217066 51.5 28 C51.20178828 21.38792632 48.8643883 16.20782824 44.625 11.1875 C38.29575444 5.9131287 33.60592931 3.61114508 25.44140625 3.71875 C18.64022011 4.50224664 13.38635783 7.83957902 9 13 Z " fill="#FFFFFF" transform="translate(0,0)"/>
<path d="M0 0 C0.9590625 -0.02578125 1.918125 -0.0515625 2.90625 -0.078125 C5.5 0.25 5.5 0.25 7.29296875 1.6484375 C8.76749504 3.60492869 9.28385007 4.80030079 9.5 7.25 C8.85561283 8.92540664 8.18753301 10.59183216 7.5 12.25 C7.33201738 14.95886941 7.33201738 14.95886941 7.5 17.25 C4.37348943 19.10274701 2.12826895 19.70353362 -1.5 19.25 C-3.8125 17.75 -3.8125 17.75 -5.5 16.25 C-5.78875 17.03375 -6.0775 17.8175 -6.375 18.625 C-7.5 21.25 -7.5 21.25 -9.5 23.25 C-10.16 23.25 -10.82 23.25 -11.5 23.25 C-11.5 24.9 -11.5 26.55 -11.5 28.25 C-10.695625 27.0434375 -10.695625 27.0434375 -9.875 25.8125 C-7.06894631 22.78491576 -5.53174806 22.52489191 -1.5 22.25 C-1.83 22.91 -2.16 23.57 -2.5 24.25 C-3.82 24.25 -5.14 24.25 -6.5 24.25 C-6.5 24.91 -6.5 25.57 -6.5 26.25 C-7.16 26.25 -7.82 26.25 -8.5 26.25 C-9.49 28.725 -9.49 28.725 -10.5 31.25 C-11.16 31.25 -11.82 31.25 -12.5 31.25 C-12.17 32.24 -11.84 33.23 -11.5 34.25 C-11.83 35.24 -12.16 36.23 -12.5 37.25 C-11.84 37.25 -11.18 37.25 -10.5 37.25 C-10.273125 36.610625 -10.04625 35.97125 -9.8125 35.3125 C-8.5 33.25 -8.5 33.25 -5.875 32.5 C-5.09125 32.4175 -4.3075 32.335 -3.5 32.25 C-4.263125 32.9925 -5.02625 33.735 -5.8125 34.5 C-7.9393702 36.6763323 -9.7559956 38.77167796 -11.5 41.25 C-13.25 41.125 -13.25 41.125 -15.5 40.25 C-20.28988518 34.19220404 -21.98851981 28.46264351 -21.81640625 20.84375 C-20.825049 12.71706836 -16.53376079 7.57192065 -10.375 2.5 C-6.98429606 0.23953071 -3.9710743 0.06404959 0 0 Z " fill="#0F133E" transform="translate(25.5,4.75)"/>
<path d="M0 0 C2.2477975 2.05233685 3.0022242 3.00667261 4 6 C4.99 6.66 5.98 7.32 7 8 C6.67 8.99 6.34 9.98 6 11 C6 10.34 6 9.68 6 9 C5.01 9.495 5.01 9.495 4 10 C2.67139075 10.35169068 1.33841672 10.68770276 0 11 C-0.33 10.34 -0.66 9.68 -1 9 C-2.98 9.99 -4.96 10.98 -7 12 C-6.97679687 12.59167969 -6.95359375 13.18335938 -6.9296875 13.79296875 C-6.72990016 22.54080024 -6.72990016 22.54080024 -9 26 C-11.625 26.8125 -11.625 26.8125 -14 27 C-14 27.33 -14 27.66 -14 28 C-13.03900391 27.87431641 -13.03900391 27.87431641 -12.05859375 27.74609375 C-6.76924686 27.12335395 -2.22954501 26.97682815 3 28 C3 28.33 3 28.66 3 29 C1.89140625 29.04898438 0.7828125 29.09796875 -0.359375 29.1484375 C-1.82294065 29.22349215 -3.28648112 29.29903881 -4.75 29.375 C-5.84441406 29.42140625 -5.84441406 29.42140625 -6.9609375 29.46875 C-10.73942656 29.6748494 -13.77946668 29.91512843 -17 32 C-17.66 31.01 -18.32 30.02 -19 29 C-17.35 26.69 -15.7 24.38 -14 22 C-14.99 22.99 -15.98 23.98 -17 25 C-17.66 25 -18.32 25 -19 25 C-20 22 -20 22 -19 19 C-18.0206121 17.97980427 -17.02104551 16.97850195 -16 16 C-15.67 15.34 -15.34 14.68 -15 14 C-14.34 14 -13.68 14 -13 14 C-13 13.34 -13 12.68 -13 12 C-15.50357192 13.25178596 -17.06433379 14.99981158 -19 17 C-19.36923077 11.46153846 -19.36923077 11.46153846 -17.5 9.125 C-17.005 8.75375 -16.51 8.3825 -16 8 C-15.67 8.33 -15.34 8.66 -15 9 C-14.34 7.35 -13.68 5.7 -13 4 C-10 4 -10 4 -7 6 C-4.88719655 6.63292383 -4.88719655 6.63292383 -3 7 C-2.67 6.34 -2.34 5.68 -2 5 C-1.34 4.67 -0.68 4.34 0 4 C0 2.68 0 1.36 0 0 Z " fill="#21355B" transform="translate(32,17)"/>
<path d="M0 0 C0.33 0.99 0.66 1.98 1 3 C1.99 2.67 2.98 2.34 4 2 C4.33 1.34 4.66 0.68 5 0 C5.66 0.33 6.32 0.66 7 1 C7 1.66 7 2.32 7 3 C7.99 3 8.98 3 10 3 C10 4.98 10 6.96 10 9 C9.34 8.67 8.68 8.34 8 8 C8.66 10.31 9.32 12.62 10 15 C6.89448334 15 5.64738916 14.4606285 3 13 C3.66 14.32 4.32 15.64 5 17 C4.01 17.33 3.02 17.66 2 18 C2.33 18.66 2.66 19.32 3 20 C-5.415 20.495 -5.415 20.495 -14 21 C-13 18 -13 18 -10.9375 16.8125 C-10.298125 16.544375 -9.65875 16.27625 -9 16 C-9 15.34 -9 14.68 -9 14 C-8.34 13.67 -7.68 13.34 -7 13 C-7.08701172 12.07767578 -7.08701172 12.07767578 -7.17578125 11.13671875 C-7.31310461 8.67666882 -7.35967776 6.43974189 -7 4 C-4.625 2 -4.625 2 -2 1 C-1.34 0.67 -0.68 0.34 0 0 Z " fill="#1B2952" transform="translate(31,25)"/>
<path d="M0 0 C2.23159222 1.43973692 2.77176398 2.4733015 3.8125 4.875 C4.05981688 7.67792463 3.06994904 9.41953467 2 12 C1.83201738 14.70886941 1.83201738 14.70886941 2 17 C-1.11770921 18.84753138 -3.38115411 19.54282688 -7 19 C-9.375 17.25 -9.375 17.25 -11 15 C-10.6875 12.875 -10.6875 12.875 -10 11 C-10.33 10.34 -10.66 9.68 -11 9 C-10.34 9 -9.68 9 -9 9 C-9 8.01 -9 7.02 -9 6 C-9.66 5.67 -10.32 5.34 -11 5 C-11 3 -11 3 -10 1.375 C-6.86276185 -0.78185123 -3.68882483 -0.56988108 0 0 Z " fill="#111440" transform="translate(31,5)"/>
<path d="M0 0 C0.99 0 1.98 0 3 0 C3.34123581 1.99866686 3.6725678 3.99902542 4 6 C4.20625 7.258125 4.4125 8.51625 4.625 9.8125 C4.74875 10.864375 4.8725 11.91625 5 13 C4 14 4 14 1.0625 14.1875 C-2 14 -2 14 -4 12 C-3.34 11.67 -2.68 11.34 -2 11 C-2.02320312 10.37351562 -2.04640625 9.74703125 -2.0703125 9.1015625 C-2.08835937 8.28429688 -2.10640625 7.46703125 -2.125 6.625 C-2.15980469 5.40683594 -2.15980469 5.40683594 -2.1953125 4.1640625 C-2 2 -2 2 0 0 Z " fill="#0E103C" transform="translate(26,27)"/>
<path d="M0 0 C2.2477975 2.05233685 3.0022242 3.00667261 4 6 C4.99 6.66 5.98 7.32 7 8 C6.67 8.99 6.34 9.98 6 11 C6 10.34 6 9.68 6 9 C5.01 9.495 5.01 9.495 4 10 C2.67139075 10.35169068 1.33841672 10.68770276 0 11 C-0.33 10.34 -0.66 9.68 -1 9 C-2.98 9.33 -4.96 9.66 -7 10 C-7 9.01 -7 8.02 -7 7 C-5.68 7 -4.36 7 -3 7 C-2.67 6.34 -2.34 5.68 -2 5 C-1.34 4.67 -0.68 4.34 0 4 C0 2.68 0 1.36 0 0 Z " fill="#34496C" transform="translate(32,17)"/>
<path d="M0 0 C2 1.5 2 1.5 3 3 C2.67 3.66 2.34 4.32 2 5 C-2.29 5 -6.58 5 -11 5 C-11 3 -11 3 -10 1.375 C-6.87693127 -0.77210975 -3.67428869 -0.59707191 0 0 Z " fill="#243A5F" transform="translate(31,5)"/>
<path d="M0 0 C0.99 0.495 0.99 0.495 2 1 C2 1.66 2 2.32 2 3 C3.65 3.33 5.3 3.66 7 4 C6.67 4.99 6.34 5.98 6 7 C6.33 7.66 6.66 8.32 7 9 C4.69 9.33 2.38 9.66 0 10 C0 6.7 0 3.4 0 0 Z " fill="#2E466A" transform="translate(29,27)"/>
<path d="M0 0 C0 0.33 0 0.66 0 1 C-1.10859375 1.04898438 -2.2171875 1.09796875 -3.359375 1.1484375 C-4.82294065 1.22349215 -6.28648112 1.29903881 -7.75 1.375 C-8.84441406 1.42140625 -8.84441406 1.42140625 -9.9609375 1.46875 C-13.73942656 1.6748494 -16.77946668 1.91512843 -20 4 C-20.66 3.01 -21.32 2.02 -22 1 C-14.31560481 -0.68096145 -7.75638382 -1.16704849 0 0 Z " fill="#3E6080" transform="translate(35,45)"/>
<path d="M0 0 C0.86625 0.37125 0.86625 0.37125 1.75 0.75 C1.42 2.07 1.09 3.39 0.75 4.75 C-0.03375 4.87375 -0.8175 4.9975 -1.625 5.125 C-4.39057822 5.54117993 -4.39057822 5.54117993 -6.25 7.75 C-6.25 3.75 -6.25 3.75 -4.5 1.4375 C-2.25 -0.25 -2.25 -0.25 0 0 Z " fill="#324567" transform="translate(22.25,38.25)"/>
<path d="M0 0 C1.8125 0.0625 1.8125 0.0625 4 1 C5.75 4.5625 5.75 4.5625 7 8 C6.01 8 5.02 8 4 8 C3.34 7.34 2.68 6.68 2 6 C-0.57061311 5.35232207 -0.57061311 5.35232207 -3 5 C-2.67 4.01 -2.34 3.02 -2 2 C-1.34 2 -0.68 2 0 2 C0 1.34 0 0.68 0 0 Z " fill="#152D54" transform="translate(34,32)"/>
<path d="M0 0 C2.375 0.25 2.375 0.25 5 1 C6.3125 3.0625 6.3125 3.0625 7 5 C6.01 5.495 6.01 5.495 5 6 C2.375 4.75 2.375 4.75 0 3 C0 2.01 0 1.02 0 0 Z " fill="#192D53" transform="translate(35,44)"/>
<path d="M0 0 C0.66 0.66 1.32 1.32 2 2 C4.58354218 2.16687448 4.58354218 2.16687448 7 2 C6.443125 2.226875 5.88625 2.45375 5.3125 2.6875 C2.36753316 4.35896766 0.31843456 6.55276352 -2 9 C-2.25 3.375 -2.25 3.375 0 0 Z " fill="#2B4B6E" transform="translate(15,25)"/>
<path d="M0 0 C1.32 0 2.64 0 4 0 C4 1.65 4 3.3 4 5 C2.35 5 0.7 5 -1 5 C-0.67 3.35 -0.34 1.7 0 0 Z " fill="#25355C" transform="translate(19,29)"/>
<path d="M0 0 C0.99 0.33 1.98 0.66 3 1 C3 1.66 3 2.32 3 3 C3.99 3 4.98 3 6 3 C6 4.98 6 6.96 6 9 C0.42857143 3.85714286 0.42857143 3.85714286 0 0 Z " fill="#163459" transform="translate(35,25)"/>
<path d="M0 0 C0.33 0 0.66 0 1 0 C1.33 2.97 1.66 5.94 2 9 C-0.31 8.67 -2.62 8.34 -5 8 C-4.0409375 7.690625 -4.0409375 7.690625 -3.0625 7.375 C-0.65074923 6.10461791 -0.65074923 6.10461791 -0.25 2.875 C-0.1675 1.92625 -0.085 0.9775 0 0 Z " fill="#335172" transform="translate(23,28)"/>
</svg>
