<?xml version="1.0"?>
<svg width="54" height="54" xmlns="http://www.w3.org/2000/svg" xmlns:svg="http://www.w3.org/2000/svg">
 <defs>
  <radialGradient cx="0" cy="0" gradientTransform="rotate(45) scale(76.3675 97.0768)" gradientUnits="userSpaceOnUse" id="paint0_radial_3595_29400" r="1">
   <stop stop-color="#16D1D6"/>
   <stop offset="1" stop-color="#274CFF"/>
  </radialGradient>
 </defs>
 <g class="layer">
  <title>Layer 1</title>
  <rect fill="#000000" height="54" id="svg_1" rx="27" stroke="null" stroke-dasharray="null" stroke-linecap="null" stroke-linejoin="null" stroke-opacity="null" stroke-width="0" transform="matrix(1, 0, 0, 1, 0, 0)" width="54" x="0.25" y="0"/>
  <path clip-rule="evenodd" d="m29.8,11l3.71,0c1.27,0 2.34,0 3.21,0.07c0.92,0.08 1.79,0.24 2.62,0.66c1.26,0.65 2.29,1.68 2.93,2.95c0.42,0.83 0.58,1.71 0.66,2.63c0.07,0.88 0.07,1.96 0.07,3.24l0,3.53c0,1.28 0,2.36 -0.07,3.24c-0.08,0.92 -0.24,1.79 -0.66,2.63c-0.64,1.27 -1.67,2.3 -2.93,2.94c-0.83,0.43 -1.7,0.59 -2.62,0.67c-0.87,0.07 -1.94,0.07 -3.21,0.07l-11.09,0c-0.77,0 -1.48,-0.47 -1.78,-1.19c-0.3,-0.72 -0.14,-1.56 0.41,-2.12l9.15,-9.37l2.75,2.73l-5.92,6.06l6.4,0c1.37,0 2.28,0 2.98,-0.06c0.67,-0.05 0.98,-0.15 1.17,-0.25c0.54,-0.27 0.97,-0.71 1.25,-1.25c0.09,-0.19 0.19,-0.5 0.25,-1.18c0.05,-0.7 0.05,-1.62 0.05,-2.99l0,-3.39c0,-1.37 0,-2.29 -0.05,-2.99c-0.06,-0.68 -0.16,-0.99 -0.25,-1.18c-0.28,-0.54 -0.71,-0.98 -1.25,-1.25c-0.19,-0.1 -0.5,-0.2 -1.17,-0.26c-0.7,-0.05 -1.61,-0.05 -2.98,-0.05l-3.56,0c-1.38,0 -2.3,0 -3.01,0.06c-0.68,0.05 -0.99,0.15 -1.19,0.25c-0.53,0.28 -0.97,0.72 -1.24,1.27c-0.1,0.19 -0.19,0.51 -0.24,1.19c-0.05,0.72 -0.04,1.64 -0.02,3.03l0.02,1.6l-3.87,0.05l-0.02,-1.68c-0.01,-1.29 -0.03,-2.38 0.03,-3.27c0.07,-0.93 0.22,-1.81 0.64,-2.66c0.64,-1.28 1.67,-2.33 2.94,-2.98c0.83,-0.44 1.71,-0.6 2.64,-0.68c0.88,-0.07 1.96,-0.07 3.25,-0.07z" fill="#000000" fill-rule="evenodd" id="svg_2" stroke="null" stroke-dasharray="null" stroke-linecap="null" stroke-linejoin="null" stroke-opacity="null" stroke-width="0" transform="matrix(1, 0, 0, 1, 0, 0)"/>
  <path clip-rule="evenodd" d="m17.59,39.06c0.7,0.05 1.61,0.05 2.98,0.05l3.62,0c1.24,0 2.07,0 2.71,-0.05c0.62,-0.04 0.91,-0.12 1.09,-0.21c0.61,-0.28 1.11,-0.78 1.39,-1.4c0.09,-0.18 0.17,-0.47 0.21,-1.09c0.05,-0.64 0.05,-1.48 0.05,-2.73l3.87,0l0,0.07c0,1.16 0,2.15 -0.06,2.95c-0.06,0.84 -0.2,1.64 -0.55,2.42c-0.67,1.47 -1.84,2.64 -3.3,3.32c-0.77,0.35 -1.57,0.49 -2.41,0.55c-0.8,0.06 -1.77,0.06 -2.93,0.06l-3.77,0c-1.27,0 -2.34,0 -3.21,-0.07c-0.92,-0.08 -1.79,-0.24 -2.62,-0.66c-1.26,-0.65 -2.29,-1.68 -2.93,-2.95c-0.42,-0.83 -0.58,-1.71 -0.66,-2.63c-0.07,-0.88 -0.07,-1.96 -0.07,-3.24l0,-3.53c0,-1.28 0,-2.36 0.07,-3.24c0.08,-0.92 0.24,-1.79 0.66,-2.63c0.64,-1.27 1.67,-2.3 2.93,-2.94c0.83,-0.43 1.7,-0.59 2.62,-0.67c0.87,-0.07 1.94,-0.07 3.21,-0.07l11.09,0c1.06,0 1.93,0.87 1.93,1.94c0,1.08 -0.87,1.95 -1.93,1.95l-11.01,0c-1.37,0 -2.28,0 -2.98,0.06c-0.67,0.05 -0.98,0.15 -1.17,0.25c-0.54,0.27 -0.97,0.71 -1.25,1.25c-0.09,0.19 -0.19,0.5 -0.25,1.18c-0.05,0.7 -0.05,1.62 -0.05,2.99l0,3.39c0,1.37 0,2.29 0.05,2.99c0.06,0.68 0.16,0.99 0.25,1.18c0.28,0.54 0.71,0.98 1.25,1.25c0.19,0.1 0.5,0.2 1.17,0.26z" fill="#000000" fill-rule="evenodd" id="svg_3" stroke="null" stroke-dasharray="null" stroke-linecap="null" stroke-linejoin="null" stroke-opacity="null" stroke-width="0"/>
  <path d="m235.43,1c-25.84,20.89 -61.56,21.09 -87.59,0.62c-25.04,19.7 -59.05,20.26 -84.61,1.69l-45.95,49.36c28.27,30.91 28.1,80.58 -0.48,111.27c-3.79,10.48 -5.78,9.98 -6.2,20.53c-0.97,25.41 4.73,49.12 22.58,66.97c15.95,15.95 37.59,22.71 58.38,20.3c34.72,1.93 51.36,18.08 58.34,27.74c9.43,-10.32 24.1,-26.91 68.67,-28.98c26.61,-4.12 36.22,-10.79 48.71,-23.11c16.81,-16.81 22.68,-38.09 22.19,-61.74c-0.21,-9.82 -1.32,-13.23 -6.85,-25.77c-28.72,-30.84 -28.74,-80.83 -0.08,-111.71l-47.12,-47.18z" fill="url(#paint0_radial_3595_29400)" fill-opacity="null" id="svg_4" opacity="0.5" stroke="null" stroke-dasharray="null" stroke-linecap="null" stroke-linejoin="null" stroke-opacity="null" transform="translate(11,18) scale(0.005) translate(-11,-18)"/>
  <text fill="#7fff00" font-family="Serif" font-size="24" id="svg_5" stroke="null" stroke-dasharray="null" stroke-linecap="null" stroke-linejoin="null" stroke-opacity="null" stroke-width="0" style="cursor: move;" text-anchor="middle" transform="matrix(0.7751, 0, 0, 0.81203, 8.96084, 5.15977)" x="23.6" xml:space="preserve" y="34.87">PDC</text>
 </g>
</svg>