<?xml version="1.0" standalone="no"?>
<!DOCTYPE svg PUBLIC "-//W3C//DTD SVG 20010904//EN"
 "http://www.w3.org/TR/2001/REC-SVG-20010904/DTD/svg10.dtd">
<svg version="1.0" xmlns="http://www.w3.org/2000/svg"
 width="256.000000pt" height="256.000000pt" viewBox="0 0 256.000000 256.000000"
 preserveAspectRatio="xMidYMid meet">

<g transform="translate(0.000000,256.000000) scale(0.100000,-0.100000)"
fill="#000000" stroke="none">
<path d="M0 1280 l0 -1280 1280 0 1280 0 0 1280 0 1280 -1280 0 -1280 0 0
-1280z m1395 1009 c19 -5 2 -6 -45 -2 -67 4 -159 -4 -260 -23 -49 -9 -27 12
25 25 49 11 239 12 280 0z m-135 -99 c-102 -8 -191 -28 -264 -60 -33 -14 -44
-15 -40 -5 6 14 92 49 159 64 22 5 85 9 140 9 l100 -1 -95 -7z m285 -41 c30
-11 55 -25 55 -30 0 -5 -14 -2 -32 7 -17 9 -47 22 -67 29 -20 8 -31 14 -24 14
7 1 37 -8 68 -20z m-455 -73 c0 -3 -40 -25 -90 -49 -49 -24 -90 -41 -90 -37 0
14 28 31 97 60 68 29 83 34 83 26z m478 -41 c40 -19 72 -39 72 -46 0 -8 -4 -9
-13 0 -8 6 -47 26 -88 46 -41 19 -67 34 -59 35 9 0 48 -16 88 -35z m-529 -88
c-23 -18 -133 -77 -136 -74 -2 2 3 9 11 16 23 19 120 70 125 65 2 -2 2 -5 0
-7z m594 -55 c38 -34 13 -29 -45 8 -33 22 -65 40 -70 40 -4 0 -8 5 -8 10 0 11
95 -33 123 -58z m-594 -46 c-4 -4 -102 -70 -122 -83 -6 -3 -7 -1 -3 6 9 14
107 81 120 81 5 0 7 -2 5 -4z m587 -61 c16 -13 26 -26 22 -30 -4 -4 -21 4 -39
19 -17 15 -44 33 -60 42 -16 8 -29 19 -29 25 0 12 63 -22 106 -56z m-33 -91
c31 -25 57 -53 57 -61 0 -10 -14 -3 -42 23 -24 22 -56 49 -73 61 -18 13 -24
22 -15 23 8 0 41 -21 73 -46z m-593 22 c0 -2 -21 -20 -47 -41 l-48 -37 45 41
c45 41 50 45 50 37z m-26 -149 c-32 -34 -61 -61 -63 -60 -5 4 110 123 118 123
2 0 -22 -28 -55 -63z m592 31 c52 -46 111 -129 146 -205 46 -102 27 -95 -24 9
-36 72 -63 111 -114 161 -68 69 -74 93 -8 35z m-526 -82 c0 -3 -18 -26 -40
-51 -22 -26 -50 -65 -61 -87 -11 -22 -23 -37 -26 -34 -8 8 44 92 84 137 34 37
43 45 43 35z m258 -3 c-10 -2 -26 -2 -35 0 -10 3 -2 5 17 5 19 0 27 -2 18 -5z
m270 -45 c43 -58 87 -138 75 -138 -5 0 -19 20 -32 45 -13 25 -42 65 -63 89
-21 24 -38 47 -38 50 0 18 22 0 58 -46z m-451 -19 c-26 -17 -59 -48 -75 -70
-24 -35 -54 -57 -36 -26 36 59 112 127 143 127 8 0 -7 -14 -32 -31z m367 -22
c53 -53 84 -97 68 -97 -4 0 -25 21 -46 46 -21 25 -56 59 -79 75 -34 24 -37 29
-18 29 14 0 43 -21 75 -53z m-621 -12 c-15 -30 -29 -53 -31 -51 -4 5 46 106
53 106 3 0 -7 -25 -22 -55z m495 -10 c43 -18 122 -92 122 -114 0 -8 -16 4 -35
26 -92 107 -244 110 -335 6 -17 -19 -34 -32 -37 -29 -11 11 95 105 129 115 51
14 115 13 156 -4z m467 -96 c22 -90 27 -132 16 -124 -6 3 -11 16 -11 28 0 20
-15 83 -35 147 -5 19 -4 22 4 14 7 -6 18 -35 26 -65z m-535 32 c0 -12 10 -20
29 -24 39 -8 87 -51 114 -101 17 -32 22 -58 22 -121 0 -86 -20 -139 -65 -180
-17 -15 -15 -9 8 23 101 141 26 362 -123 362 -149 0 -224 -221 -123 -362 23
-32 25 -38 8 -23 -45 41 -65 94 -65 181 0 72 3 86 30 130 34 54 85 94 122 94
13 0 22 4 19 9 -8 13 4 42 15 35 5 -3 9 -13 9 -23z m-242 -70 c4 -11 -12 -12
-86 -6 -107 8 -86 24 -232 -178 -58 -81 -108 -147 -112 -147 -25 -1 5 49 108
181 84 108 124 151 143 155 14 3 31 7 36 9 6 2 39 3 74 2 44 -1 66 -6 69 -16z
m597 10 c15 -6 11 -9 -20 -14 -84 -14 -131 -7 -108 16 9 9 103 8 128 -2z
m-928 -63 c-3 -7 -5 -2 -5 12 0 14 2 19 5 13 2 -7 2 -19 0 -25z m1213 -87 c0
-84 -6 -75 -13 19 -4 49 -3 70 3 60 5 -8 10 -44 10 -79z m-1303 -43 c-2 -13
-4 -3 -4 22 0 25 2 35 4 23 2 -13 2 -33 0 -45z m338 -133 c6 -24 5 -28 -5 -18
-17 15 -36 173 -25 199 6 13 11 -6 15 -66 4 -47 10 -98 15 -115z m67 112 c5
-97 31 -160 91 -220 21 -21 36 -41 33 -45 -12 -11 -75 61 -106 123 -25 50 -33
79 -37 144 -4 52 -2 81 4 81 6 0 12 -36 15 -83z m505 -5 c-7 -88 -46 -178
-101 -231 -52 -50 -54 -32 -2 21 57 60 86 136 86 229 0 50 3 68 11 63 8 -5 10
-31 6 -82z m80 6 c-7 -74 -25 -154 -33 -145 -3 2 0 24 5 48 6 24 11 72 11 107
0 40 4 62 11 62 9 0 10 -21 6 -72z m72 -57 c-5 -41 -14 -80 -20 -85 -9 -8 -10
-6 -5 9 4 11 10 53 13 93 3 40 10 69 14 65 4 -4 4 -42 -2 -82z m-804 -61 c4
-11 2 -20 -4 -20 -5 0 -12 21 -16 48 -3 26 -8 59 -10 73 -2 15 -1 30 3 34 4 4
10 -21 14 -54 4 -34 10 -71 13 -81z m-85 26 c0 -7 3 -29 6 -47 4 -23 2 -29 -4
-19 -14 23 -23 80 -12 80 6 0 10 -6 10 -14z m964 -13 c-4 -16 -11 -37 -16 -48
-7 -17 -8 -16 -3 5 2 14 5 35 5 48 0 12 5 22 10 22 6 0 8 -11 4 -27z m-1019
-113 c5 -24 4 -32 -3 -25 -6 6 -13 28 -17 50 -8 49 9 28 20 -25z m915 19 c0
-5 -34 -9 -76 -9 -60 0 -74 3 -66 13 12 14 142 11 142 -4z m-615 1 c3 -5 -32
-10 -91 -12 l-97 -3 -96 -131 c-142 -194 -150 -204 -151 -177 0 23 203 290
242 317 25 18 183 23 193 6z m-356 -120 c0 -8 -7 -1 -14 15 -8 17 -14 37 -14
45 0 8 7 2 14 -15 8 -16 14 -37 14 -45z m414 -5 c39 -35 33 -51 -8 -19 -33 25
-45 44 -27 44 4 0 19 -12 35 -25z m387 16 c0 -10 -53 -51 -66 -51 -4 0 5 14
21 30 29 30 45 38 45 21z m-464 -69 c28 -27 77 -62 110 -78 50 -25 71 -29 139
-29 97 1 169 30 243 99 61 57 80 61 27 5 -94 -95 -217 -141 -322 -120 -84 16
-151 53 -213 116 -67 68 -53 74 16 7z m-394 -26 c-6 -10 -20 20 -21 44 0 8 6
4 13 -10 8 -14 12 -29 8 -34z m268 44 c0 -5 30 -41 66 -80 49 -52 86 -80 138
-105 52 -26 64 -35 45 -35 -26 0 -127 55 -168 93 -32 30 -101 117 -101 128 0
5 5 9 10 9 6 0 10 -4 10 -10z m746 -28 c-17 -16 -18 -16 -5 5 7 12 15 20 18
17 3 -2 -3 -12 -13 -22z m-74 -82 c-56 -54 -157 -118 -168 -107 -3 2 21 17 51
32 31 15 82 51 113 81 31 29 59 53 62 53 3 0 -23 -27 -58 -59z m-648 -57 c48
-52 53 -70 9 -35 -35 27 -103 115 -103 132 1 9 9 3 23 -15 12 -16 44 -54 71
-82z m-99 -21 c21 -23 34 -46 30 -50 -7 -7 -57 46 -77 82 -16 29 5 15 47 -32z
m-57 -68 c37 -50 36 -75 0 -29 -43 54 -47 60 -48 68 0 17 17 3 48 -39z m538
-15 c14 -5 91 -9 172 -9 109 -1 153 -4 172 -15 l25 -15 -35 1 c-19 1 -177 2
-350 2 -173 0 -332 0 -354 1 -40 0 -69 -24 -137 -114 -15 -19 -30 -32 -34 -28
-11 10 113 148 143 159 13 5 88 9 167 9 151 0 194 8 196 37 1 17 2 17 6 0 3
-10 16 -22 29 -28z m-567 -99 c0 -8 -15 2 -34 25 -19 22 -35 46 -35 54 0 8 16
-3 35 -25 19 -21 34 -46 34 -54z m-79 -30 c18 -23 30 -44 26 -47 -6 -6 -14 2
-57 60 -32 43 -4 31 31 -13z"/>
</g>
</svg>
